<svg xmlns="http://www.w3.org/2000/svg" viewBox="0 0 64 64">
  <rect width="64" height="64" rx="12" fill="#1f3a24"/>
  <path d="M32 50V24" stroke="#d8c98a" stroke-width="4" stroke-linecap="round"/>
  <path d="M32 30c-7 0-13-5-14-12 8 0 14 4 14 12Z" fill="#7daa5a"/>
  <path d="M32 30c7 0 13-5 14-12-8 0-14 4-14 12Z" fill="#8bc36a"/>
  <path d="M32 40c-6 0-11-4-12-10 7 0 12 3 12 10Z" fill="#6ea34d"/>
  <path d="M32 40c6 0 11-4 12-10-7 0-12 3-12 10Z" fill="#7fb85c"/>
  <ellipse cx="27" cy="45" rx="4" ry="3.2" fill="#bda96f"/>
  <ellipse cx="32" cy="44" rx="4" ry="3.2" fill="#c7b57a"/>
  <ellipse cx="37" cy="45" rx="4" ry="3.2" fill="#bda96f"/>
</svg>
